# xmcd CD database file
#
# Track frame offsets:
#	187
#	9937
#	23662
#	44137
#	55087
#	66600
#	80325
#	94612
#	113850
#	117937
#	124087
#	138037
#	149662
#	160387
#	173137
#	185175
#	194475
#	208425
#	220462
#	230550
#	242325
#	252750
#	263062
#	279600
#	291825
#	300825
#
# Disc length: 4146 seconds
#
# Revision: 4
# Processed by: cddbd v1.5.1PL0 Copyright (c) Steve Scherf et al.
# Submitted via: CDex 1.51
#
DISCID=8810301a
DTITLE=Various Artist - Rounder Old-Time Music
DYEAR=1987
DGENRE=Bluegrass
TTITLE0=Snuffy Jenkins and Pappy Sherrill - C and NW Railroad Blues (1971)
TTITLE1=Norman Blake - If I Lose, I Don't Care (1985)
TTITLE2=Hazel Dickens - West Virginia My Home (1980)
TTITLE3=Ricky Skaggs - Talk About Sufferin' (1982)
TTITLE4=Tompkins County Horseflies - Benson's Dream (1985)
TTITLE5=Highwoods Stringband - Goodbye Miss Liza (1975)
TTITLE6=Don Stover - Things In Life (1972)
TTITLE7=Ola Belle Reed - You Led Me To The Wrong (1973)
TTITLE8=Alva Greene and Francis Gillum - Hunky Dory (1981)
TTITLE9=Wade Ward - Shady Grove (1974)
TTITLE10=Ted Lundy and The Southern Mountain Boys - It Rained A Mist (1973)
TTITLE11=Joe Val and The New England Bluegrass Boys - I've Been All Around This World (1983)
TTITLE12=James Bryan - The First Of May (1986)
TTITLE13=The Chicken Chokers - Looking For Money (1985)
TTITLE14=Bob Carlin - Too Young To Marry (1985)
TTITLE15=Bashful Brother Oswald - That High Born Gal Of Mine (1978)
TTITLE16=The Whitstein Brothers - Where The Old Red River Flows (1984)
TTITLE17=The Bailey Brothers - Take Me Back To Happy Valley (1974)
TTITLE18=The Blue Sky Boys - Just A Strand From A Yellow Curl (1976)
TTITLE19=Buddy Thomas - Briarpicker Brown (1976)
TTITLE20=The Louvin Brothers - Let Us Travel On (1952)
TTITLE21=George Pegram - Johnson's Old Grey Mule (1970)
TTITLE22=The Old Home String Band - Shut Up In The Mines Of Coal Creek (1974)
TTITLE23=Doc Watson, Arnold Watson, Gaither Carlton - Reuben's Train (1965)
TTITLE24=Mark O'Connor - Soppin' The Gravy (1981)
TTITLE25=E.C. And Orna Ball - Fathers Have A Home Sweet Home (1976)
EXTD=YEAR: 1987
EXTT0=
EXTT1=
EXTT2=
EXTT3=
EXTT4=
EXTT5=
EXTT6=
EXTT7=
EXTT8=
EXTT9=
EXTT10=
EXTT11=
EXTT12=
EXTT13=
EXTT14=
EXTT15=
EXTT16=
EXTT17=
EXTT18=
EXTT19=
EXTT20=
EXTT21=
EXTT22=
EXTT23=
EXTT24=
EXTT25=
PLAYORDER=
